<svg xmlns="http://www.w3.org/2000/svg" viewBox="0 0 587.68 461"><defs><style>.cls-1,.cls-2,.cls-3,.cls-4,.cls-5,.cls-6{fill-rule:evenodd;}.cls-2{fill:#d0a99f;}.cls-2,.cls-3,.cls-4,.cls-6,.cls-8{stroke:#000;stroke-miterlimit:10;}.cls-2,.cls-3,.cls-6,.cls-8{stroke-width:4px;}.cls-3,.cls-7{fill:#cb9688;}.cls-4{fill:none;stroke-linecap:round;stroke-width:5px;}.cls-5{fill:#fdfefe;}.cls-6,.cls-8{fill:#dcdbdb;}</style></defs><g id="Layer_2" data-name="Layer 2"><g id="Feet"><path class="cls-1" d="M166.29,360a50.5,50.5,0,1,1-50.5,50.5A50.5,50.5,0,0,1,166.29,360Z"/><path class="cls-1" d="M417.29,360a50.5,50.5,0,1,1-50.5,50.5A50.5,50.5,0,0,1,417.29,360Z"/></g><g id="Body"><path class="cls-2" d="M23.79,2h540a15,15,0,0,1,15,15V396a15,15,0,0,1-15,15h-540a15,15,0,0,1-15-15V17A15,15,0,0,1,23.79,2Z"/><path class="cls-3" d="M9.29,286.77h570V398.23a15,15,0,0,1-15,15h-540a15,15,0,0,1-15-15Z"/></g><g id="Smile"><path class="cls-4" d="M224.79,194s32.82,19,65,19c32.81,0,65-19,65-19"/></g><g id="Eyes"><path class="cls-1" d="M408.79,66.25c26,0,47,25.91,47,57.87s-21,57.88-47,57.88-47-25.91-47-57.88S382.83,66.25,408.79,66.25Z"/><path class="cls-1" d="M171.79,66.25c26,0,47,25.91,47,57.87s-21,57.88-47,57.88-47-25.91-47-57.88S145.83,66.25,171.79,66.25Z"/><path class="cls-5" d="M414.29,143a7.5,7.5,0,1,1-7.5,7.5A7.5,7.5,0,0,1,414.29,143Z"/><path class="cls-5" d="M409.79,93a17,17,0,1,1-17,17A17,17,0,0,1,409.79,93Z"/><path class="cls-5" d="M176.29,143a7.5,7.5,0,1,1-7.5,7.5A7.5,7.5,0,0,1,176.29,143Z"/><path class="cls-5" d="M171.79,93a17,17,0,1,1-17,17A17,17,0,0,1,171.79,93Z"/></g><g id="Pins"><path class="cls-6" d="M12.31,207H29.48c5.7,0,10.31,6.72,10.31,15v32c0,8.28-4.61,15-10.31,15H12.31C6.61,269,2,262.28,2,254V222C2,213.72,6.61,207,12.31,207Z"/><path class="cls-6" d="M12.31,123H29.48c5.7,0,10.31,6.72,10.31,15v32c0,8.28-4.61,15-10.31,15H12.31C6.61,185,2,178.28,2,170V138C2,129.72,6.61,123,12.31,123Z"/><path class="cls-6" d="M12.31,37H29.48c5.7,0,10.31,6.72,10.31,15V84c0,8.28-4.61,15-10.31,15H12.31C6.61,99,2,92.28,2,84V52C2,43.72,6.61,37,12.31,37Z"/><path class="cls-6" d="M558.2,207h17.18c5.69,0,10.3,6.72,10.3,15v32c0,8.28-4.61,15-10.3,15H558.2c-5.69,0-10.31-6.72-10.31-15V222C547.89,213.72,552.51,207,558.2,207Z"/><path class="cls-6" d="M558.2,123h17.18c5.69,0,10.3,6.72,10.3,15v32c0,8.28-4.61,15-10.3,15H558.2c-5.69,0-10.31-6.72-10.31-15V138C547.89,129.72,552.51,123,558.2,123Z"/><path class="cls-6" d="M558.2,37h17.18c5.69,0,10.3,6.72,10.3,15V84c0,8.28-4.61,15-10.3,15H558.2c-5.69,0-10.31-6.72-10.31-15V52C547.89,43.72,552.51,37,558.2,37Z"/></g><g id="Cheeks"><g id="Layer_8" data-name="Layer 8"><ellipse class="cls-7" cx="126.98" cy="207.18" rx="12.65" ry="28.67" transform="translate(-115.93 213.55) rotate(-60)"/><ellipse class="cls-7" cx="456.98" cy="207.18" rx="28.67" ry="12.65" transform="translate(-42.36 256.25) rotate(-30)"/></g></g><g id="Bowties"><path class="cls-8" d="M287.79,286l72-33v66Z"/><path class="cls-8" d="M287.79,286l-72,33V253Z"/></g></g></svg>