<?xml version="1.0" standalone="no"?>
<!DOCTYPE svg PUBLIC "-//W3C//DTD SVG 20010904//EN"
 "http://www.w3.org/TR/2001/REC-SVG-20010904/DTD/svg10.dtd">
<svg version="1.0" xmlns="http://www.w3.org/2000/svg"
 width="700.000000pt" height="700.000000pt" viewBox="0 0 700.000000 700.000000"
 preserveAspectRatio="xMidYMid meet">
<metadata>
Created by potrace 1.14, written by Peter Selinger 2001-2017
</metadata>
<g transform="translate(0.000000,700.000000) scale(0.100000,-0.100000)"
fill="#000000" stroke="none">
<path d="M247 6210 c-45 -14 -95 -58 -119 -103 -18 -36 -21 -61 -23 -173 -1
-130 -1 -130 -32 -170 -17 -21 -36 -55 -41 -74 -13 -49 -8 -498 6 -531 6 -15
24 -42 40 -60 l28 -34 -1 -145 c-1 -138 -2 -147 -24 -169 -49 -49 -54 -79 -56
-331 -2 -257 5 -297 53 -345 27 -27 27 -29 27 -164 0 -126 -1 -138 -21 -156
-12 -11 -30 -36 -40 -55 -17 -32 -19 -60 -19 -290 0 -275 3 -289 58 -340 l22
-21 0 -799 0 -799 30 -42 c17 -23 48 -52 70 -63 39 -20 53 -21 608 -21 498 0
567 -2 568 -15 0 -8 2 -24 4 -35 2 -11 7 -36 10 -55 7 -40 55 -153 67 -158 4
-2 8 -9 8 -15 0 -13 74 -102 119 -142 18 -16 63 -47 100 -68 234 -133 523 -94
711 97 91 92 165 236 174 338 2 19 6 39 9 44 4 8 1741 12 1780 5 4 0 7 -10 7
-22 0 -32 29 -139 52 -189 96 -211 312 -350 548 -352 274 -2 533 211 584 481
8 40 17 75 21 79 4 4 271 7 593 8 528 0 590 2 617 17 47 26 61 40 84 82 21 40
21 43 21 829 l0 788 30 34 c16 19 34 52 40 74 11 40 16 462 6 507 -7 32 -32
76 -55 97 -19 18 -21 30 -21 156 0 126 2 138 21 156 23 21 48 65 55 97 6 28 6
465 0 494 -7 32 -31 76 -55 97 -20 18 -21 29 -21 166 l0 148 30 32 c46 49 52
90 51 346 0 228 0 233 -25 282 -14 27 -32 52 -41 55 -12 5 -15 29 -15 139 -1
181 -24 232 -125 279 -39 18 -149 19 -3265 18 -1774 0 -3238 -5 -3253 -9z"/>
</g>
</svg>
